<?xml version="1.0" standalone="no"?>
<!DOCTYPE svg PUBLIC "-//W3C//DTD SVG 20010904//EN"
 "http://www.w3.org/TR/2001/REC-SVG-20010904/DTD/svg10.dtd">
<svg version="1.0" xmlns="http://www.w3.org/2000/svg"
 width="512.000000pt" height="512.000000pt" viewBox="0 0 512.000000 512.000000"
 preserveAspectRatio="xMidYMid meet">
<metadata>
Created by potrace 1.11, written by Peter Selinger 2001-2013
</metadata>
<g transform="translate(0.000000,512.000000) scale(0.100000,-0.100000)"
fill="#000000" stroke="none">
<path d="M1135 4686 c-17 -7 -35 -19 -41 -27 -7 -8 -233 -456 -504 -997 l-492
-983 7 -67 c39 -417 351 -756 800 -869 126 -31 329 -39 450 -18 486 88 850
455 882 890 l5 71 -421 843 c-232 463 -421 847 -421 853 0 7 4 7 13 0 6 -5 23
-13 37 -17 14 -4 75 -27 135 -50 61 -24 149 -58 198 -76 48 -18 87 -36 87 -41
0 -5 4 -7 9 -4 4 3 66 -17 137 -45 71 -27 194 -75 273 -105 79 -30 149 -58
155 -63 8 -7 11 -530 9 -1878 0 -1027 -2 -1873 -2 -1879 -1 -7 -135 -10 -438
-10 -522 1 -508 4 -529 -103 -5 -28 25 -80 55 -95 27 -14 140 -16 1013 -16
957 0 984 1 1015 20 22 13 35 31 43 60 13 48 0 82 -42 113 -27 20 -42 21 -463
21 l-435 0 -1 25 c0 34 0 3518 0 3597 l1 61 184 -70 c103 -39 182 -75 179 -80
-3 -6 -1 -7 5 -3 6 4 166 -52 354 -125 189 -73 357 -137 373 -143 17 -6 31
-11 32 -12 3 0 -481 -967 -537 -1074 -13 -25 -25 -47 -25 -50 -1 -3 -57 -115
-125 -250 -230 -456 -240 -479 -235 -524 19 -157 37 -221 90 -331 89 -183 232
-333 422 -443 39 -23 74 -42 77 -42 4 0 25 -9 49 -19 41 -19 102 -40 122 -42
6 -1 20 -5 31 -10 22 -8 55 -14 164 -29 124 -17 312 2 453 46 417 131 722 499
729 882 1 43 -44 138 -493 1035 -300 603 -500 992 -512 999 -11 5 -54 23 -96
38 -73 27 -655 250 -911 349 -69 27 -170 66 -225 87 -55 21 -102 39 -103 40
-2 2 -4 103 -4 225 l-1 222 -26 29 c-47 52 -131 47 -168 -9 -15 -23 -18 -52
-19 -203 -2 -192 2 -182 -64 -155 -19 8 -190 73 -380 146 -190 72 -406 155
-480 184 -74 29 -152 58 -172 65 -20 8 -35 17 -32 22 3 4 -1 5 -8 3 -8 -3 -41
6 -76 20 -71 29 -67 28 -107 11z m406 -1077 c199 -398 374 -750 390 -781 l29
-57 -785 0 c-432 0 -785 3 -785 7 0 4 81 169 181 367 99 198 275 548 390 779
116 230 212 416 215 413 3 -3 167 -330 365 -728z m2749 -1016 c189 -379 365
-732 391 -786 27 -53 49 -98 49 -100 0 -1 -353 -2 -785 -2 -432 0 -784 3 -782
8 3 10 782 1567 783 1567 1 0 156 -309 344 -687z m-2277 -57 c-42 -182 -123
-314 -260 -422 -68 -54 -185 -118 -248 -136 -22 -6 -44 -13 -50 -14 -92 -27
-152 -36 -265 -38 -275 -6 -531 95 -692 274 -30 33 -63 77 -74 97 -10 21 -21
40 -25 43 -19 18 -69 161 -69 201 0 15 73 16 844 16 l843 0 -4 -21z m2772
-1083 c-21 -114 -106 -263 -202 -354 -171 -162 -382 -241 -648 -240 -107 1
-155 7 -255 32 -211 55 -394 187 -494 359 -33 57 -65 130 -72 165 -2 11 -6 32
-10 48 l-6 27 847 0 847 0 -7 -37z"/>
</g>
</svg>
